<?xml version="1.0" standalone="no"?><svg xmlns="http://www.w3.org/2000/svg" viewBox="0 0 1440 320"><path fill="#000000" fill-opacity="1" d="M0,0L6.2,16C12.3,32,25,64,37,96C49.2,128,62,160,74,160C86.2,160,98,128,111,112C123.1,96,135,96,148,112C160,128,172,160,185,197.3C196.9,235,209,277,222,282.7C233.8,288,246,256,258,240C270.8,224,283,224,295,208C307.7,192,320,160,332,122.7C344.6,85,357,43,369,32C381.5,21,394,43,406,69.3C418.5,96,431,128,443,138.7C455.4,149,468,139,480,122.7C492.3,107,505,85,517,101.3C529.2,117,542,171,554,208C566.2,245,578,267,591,256C603.1,245,615,203,628,186.7C640,171,652,181,665,192C676.9,203,689,213,702,229.3C713.8,245,726,267,738,250.7C750.8,235,763,181,775,149.3C787.7,117,800,107,812,96C824.6,85,837,75,849,74.7C861.5,75,874,85,886,117.3C898.5,149,911,203,923,229.3C935.4,256,948,256,960,224C972.3,192,985,128,997,122.7C1009.2,117,1022,171,1034,186.7C1046.2,203,1058,181,1071,160C1083.1,139,1095,117,1108,133.3C1120,149,1132,203,1145,197.3C1156.9,192,1169,128,1182,96C1193.8,64,1206,64,1218,74.7C1230.8,85,1243,107,1255,122.7C1267.7,139,1280,149,1292,176C1304.6,203,1317,245,1329,229.3C1341.5,213,1354,139,1366,112C1378.5,85,1391,107,1403,133.3C1415.4,160,1428,192,1434,208L1440,224L1440,320L1433.8,320C1427.7,320,1415,320,1403,320C1390.8,320,1378,320,1366,320C1353.8,320,1342,320,1329,320C1316.9,320,1305,320,1292,320C1280,320,1268,320,1255,320C1243.1,320,1231,320,1218,320C1206.2,320,1194,320,1182,320C1169.2,320,1157,320,1145,320C1132.3,320,1120,320,1108,320C1095.4,320,1083,320,1071,320C1058.5,320,1046,320,1034,320C1021.5,320,1009,320,997,320C984.6,320,972,320,960,320C947.7,320,935,320,923,320C910.8,320,898,320,886,320C873.8,320,862,320,849,320C836.9,320,825,320,812,320C800,320,788,320,775,320C763.1,320,751,320,738,320C726.2,320,714,320,702,320C689.2,320,677,320,665,320C652.3,320,640,320,628,320C615.4,320,603,320,591,320C578.5,320,566,320,554,320C541.5,320,529,320,517,320C504.6,320,492,320,480,320C467.7,320,455,320,443,320C430.8,320,418,320,406,320C393.8,320,382,320,369,320C356.9,320,345,320,332,320C320,320,308,320,295,320C283.1,320,271,320,258,320C246.2,320,234,320,222,320C209.2,320,197,320,185,320C172.3,320,160,320,148,320C135.4,320,123,320,111,320C98.5,320,86,320,74,320C61.5,320,49,320,37,320C24.6,320,12,320,6,320L0,320Z"></path></svg>